<svg xmlns="http://www.w3.org/2000/svg" viewBox="0 0 64 64">
  <rect width="64" height="64" rx="18" fill="#fff7ef"/>
  <circle cx="32" cy="32" r="25" fill="#f8e4d6"/>
  <path fill="#b88b49" d="M32 47.5s-15.1-9.8-19.6-18.6C8.9 22 13 14.6 20.6 14.6c4.5 0 7.4 2.5 9 4.6.6.8 1.8.8 2.4 0 1.6-2.1 4.5-4.6 9-4.6 7.6 0 11.7 7.4 8.2 14.3C47.1 37.7 32 47.5 32 47.5Z"/>
  <path fill="#fff8f1" opacity=".64" d="M18.2 11.3c3.9-2.2 8.5-3.5 13.6-3.5 12.6 0 22.9 9.2 24.8 21.2-4.9-8.7-14.2-14.6-24.8-14.6-5.1 0-9.7 1.3-13.6 3.6-2.7 1.5-5.1 3.5-7 5.8 1.4-5.3 3.8-9.4 7-12.5Z"/>
</svg>
