<svg xmlns="http://www.w3.org/2000/svg" viewBox="0 0 992.182 992.181">
  <path fill="#e58d91" d="M749.204 93.337c-82.4 0-155.601 40-200.101 101.5-9.699 13.5-11 31.4-3.5 46.2l20.4 40.6c7 14 6.3 30.6-2 43.9l-42.6 68.6c-9.101 14.601-9 33 .1 47.601l41.5 66.399c8.9 14.2 9.1 32.101.7 46.601l-43.7 74.6c-8.2 14-8.2 31.4 0 45.5l44.8 76.601c7.8 13.399 8.2 29.899 1 43.6l-51.8 99c14.4 7.3 31.8 6.3 45.4-3.1 42.399-29.5 133.199-92.9 133.199-92.9 76.7-54.9 149.9-114.9 207-190.7 49.101-65.2 85-142.399 91.601-223.8 11.801-147.901-84.099-290.102-241.999-290.102Z"/>
  <path fill="#e58d91" d="M300.303 797.938s91.4 63.5 134.101 93c1.699 1.1 3.399 2.199 5.1 3.1l51.8-99c7.201-13.7 6.8-30.2-1-43.6l-44.8-76.601c-8.2-14-8.2-31.399 0-45.5l43.7-74.6c8.5-14.4 8.2-32.4-.7-46.601l-41.5-66.399c-9.1-14.601-9.1-33-.1-47.601l42.6-68.6c8.3-13.3 9-29.9 2-43.9-20.7-41.2-39.1-82.4-72.1-115.4-28.801-28.8-64.601-50.3-103.5-62.2-23.5-7.1-48-10.7-72.601-10.7-157.8 0-254.3 142.2-242.3 290.1 6.6 81.399 42.2 158.6 91.3 223.8 57.2 75.902 131.301 135.902 208 190.702Z"/>
</svg>
