<svg xmlns="http://www.w3.org/2000/svg" viewBox="0 0 100 100">
  <path d="m23.078 10.816c-4.1719 0-7.5781 3.4062-7.5781 7.5781v4.9922h-4.9805c-4.1719 0-7.5781 3.4023-7.5781 7.5781v50.633c0 4.1758 3.4023 7.5898 7.5781 7.5898l66.391-0.003906c4.1719 0 7.5781-3.4141 7.5781-7.5898v-4.9844h4.9961c4.1719 0 7.5781-3.4141 7.5781-7.5898l-0.003906-50.625c0-4.1758-3.4023-7.5781-7.5781-7.5781zm0 2.9453 66.402-0.003907c2.5938 0 4.6367 2.0391 4.6367 4.6367v38.559l-15.945-19.422c-1.5-1.8281-3.6641-2.7461-5.832-2.7461-2.168 0-4.3398 0.91797-5.8398 2.7461l-15.535 18.926c-0.67578 0.82422-1.8594 0.82812-2.5391 0.011719l-6.2227-7.4922c-3.0312-3.6484-8.707-3.6484-11.734 0l-12.027 14.469v-45.051c0-2.5977 2.043-4.6367 4.6367-4.6367zm24.52 7.6641c-5.4336 0-9.8672 4.4414-9.8672 9.8789 0 5.4336 4.4336 9.8672 9.8672 9.8672s9.8672-4.4336 9.8672-9.8672c0-5.4336-4.4336-9.8789-9.8672-9.8789zm0 2.9414c3.8438 0 6.9297 3.0898 6.9297 6.9375 0 3.8477-3.0859 6.9297-6.9297 6.9297s-6.9258-3.082-6.9258-6.9297c0-3.8477 3.082-6.9375 6.9258-6.9375zm-37.082 1.9648h4.9805v42.695c0 4.1758 3.4062 7.5898 7.5781 7.5898l58.473-0.003907v4.9844c0 2.5977-2.043 4.6484-4.6367 4.6484l-66.391-0.003906c-2.5938 0-4.6367-2.0508-4.6367-4.6484v-50.629c0-2.5977 2.043-4.6367 4.6367-4.6367zm61.816 11.367c1.3164 0 2.6367 0.56641 3.5664 1.7031l18.215 22.184v7.4414c0 2.5977-2.043 4.6484-4.6367 4.6484l-6.4531-0.003906h-59.945c-2.5938 0-4.6367-2.0508-4.6367-4.6484v-0.98047l14.297-17.191c1.8945-2.2773 5.3047-2.2773 7.1992 0l6.2344 7.4922c1.8203 2.1914 5.2578 2.1836 7.0664-0.023438l15.531-18.922c0.93359-1.1367 2.2461-1.7031 3.5625-1.7031z" />
</svg>
